# Blender v2.82 (sub 7) OBJ File: ''
# www.blender.org
mtllib vtolvr_MQ-31.mtl
o tankerDrone_lod_Mesh.001
v -0.902808 4.923376 6.191443
v -1.463088 3.785871 6.203854
v -0.882563 4.128642 8.526413
v -0.921232 5.269568 4.066452
v -0.968106 5.223400 -0.751498
v -1.624567 3.820765 -2.301638
v -0.730279 4.865834 -6.628099
v -0.511256 3.795988 -10.186544
v -0.340764 4.236557 -9.355055
v -0.882563 4.128642 8.526413
v -1.435740 3.770510 6.191042
v -1.242243 3.783831 8.001063
v 0.907455 5.089293 5.585090
v -0.882563 4.128642 8.526413
v 0.882561 4.127861 8.526147
v -0.916012 5.241911 4.646845
v 0.968107 5.223400 -0.751498
v -0.927085 5.160667 -3.868127
v -0.968106 5.223400 -0.751498
v 0.893344 5.111125 -4.433693
v -0.655005 4.841109 -6.689867
v 0.340767 4.236557 -9.355055
v -0.340763 4.236585 -9.355431
v 0.461296 3.841493 -10.135920
v -0.461292 3.840965 -10.135652
v 1.440215 3.821630 -4.323009
v 1.643221 3.816914 -0.751984
v 0.679841 4.843145 -6.652071
v 0.921231 5.269568 4.066452
v 1.468794 3.789205 6.060133
v 0.902807 4.923376 6.191443
v 0.500110 3.812213 -10.144276
v 0.882561 4.128642 8.526413
v 1.242241 3.783831 8.001063
v 0.340767 4.236557 -9.355055
v 0.882561 3.635664 8.526243
v 0.882561 4.128642 8.526413
v -0.882563 4.128642 8.526413
v -0.882563 3.635664 8.526243
v -1.428248 3.822498 1.556032
v -4.984775 3.697551 1.410540
v -1.428248 3.697501 1.555989
v -4.984774 3.822548 1.410583
v -1.428248 3.819624 -0.754685
v -4.984774 3.822548 1.410583
v -1.428248 3.822498 1.556032
v -4.984773 3.819575 -0.614144
v -1.428248 3.694627 -0.754728
v -4.984773 3.819575 -0.614144
v -1.428248 3.819624 -0.754685
v -4.984773 3.694578 -0.614188
v -1.428248 3.697501 1.555989
v -4.984773 3.694578 -0.614188
v -1.428248 3.694627 -0.754728
v -4.984775 3.697551 1.410540
v -4.984773 3.819575 -0.614144
v -4.984775 3.697551 1.410540
v -4.984774 3.822548 1.410583
v -4.984773 3.694578 -0.614188
v 1.428248 3.822498 1.556032
v 4.984775 3.697551 1.410542
v 4.984774 3.822548 1.410585
v 1.428248 3.697501 1.555989
v 1.428248 3.819624 -0.754684
v 4.984774 3.822548 1.410585
v 4.984773 3.819575 -0.614143
v 1.428248 3.822498 1.556032
v 1.428248 3.694627 -0.754727
v 4.984773 3.819575 -0.614143
v 4.984773 3.694578 -0.614186
v 1.428248 3.819624 -0.754684
v 1.428248 3.697501 1.555989
v 4.984773 3.694578 -0.614186
v 4.984775 3.697551 1.410542
v 1.428248 3.694627 -0.754727
v 4.984773 3.819575 -0.614143
v 4.984775 3.697551 1.410542
v 4.984773 3.694578 -0.614186
v 4.984774 3.822548 1.410585
v -0.900085 3.635998 8.538995
v -0.882563 4.128642 8.526413
v -1.331404 3.734566 8.022732
v 0.900083 3.635998 8.538995
v 1.331401 3.734566 8.022732
v 0.882561 4.128642 8.526413
v -0.698390 3.200016 5.456871
v -0.872655 3.666565 8.522341
v -1.278232 3.712028 8.001040
v -1.508368 3.854698 4.764274
v 0.882561 3.635664 8.526243
v -1.643221 3.816914 -0.751985
v 1.335638 3.628934 7.971849
v -0.466551 3.172816 -6.610559
v -1.350651 3.912562 -4.463533
v 0.689252 3.245770 -6.114120
v 1.595193 3.753413 4.708547
v 1.643221 3.816914 -0.751984
v -0.455726 3.816794 -10.147772
v 1.442328 3.740990 -5.054494
v 0.024480 3.305048 -9.328045
v 0.471199 3.803878 -10.155154
v 0.461296 3.821861 -10.146156
v -0.461293 3.821861 -10.146156
v -1.260349 3.747889 8.000169
vt 0.679505 0.969137
vt 0.687289 0.969156
vt 0.684040 0.979107
vt 0.677520 0.960054
vt 0.677754 0.939444
vt 0.687056 0.932799
vt 0.679021 0.914329
vt 0.684372 0.899102
vt 0.681665 0.902615
vt 0.684040 0.979107
vt 0.687288 0.969110
vt 0.686816 0.976853
vt 0.667359 0.911648
vt 0.656373 0.899178
vt 0.667202 0.899178
vt 0.656167 0.915613
vt 0.667974 0.938810
vt 0.656400 0.952677
vt 0.655849 0.938629
vt 0.667129 0.954364
vt 0.657702 0.963574
vt 0.663879 0.975581
vt 0.659697 0.975581
vt 0.664618 0.978991
vt 0.658958 0.978991
vt 0.676916 0.954107
vt 0.677520 0.938832
vt 0.669293 0.964074
vt 0.667727 0.918203
vt 0.677490 0.909717
vt 0.669716 0.909130
vt 0.674504 0.979111
vt 0.674265 0.899178
vt 0.677029 0.901418
vt 0.671975 0.975688
vt 0.701476 0.899178
vt 0.704500 0.899178
vt 0.704500 0.906729
vt 0.701476 0.906729
vt 0.702243 0.921943
vt 0.703009 0.906729
vt 0.703009 0.921943
vt 0.702243 0.906729
vt 0.687308 0.944820
vt 0.700580 0.929606
vt 0.701471 0.944820
vt 0.688169 0.929606
vt 0.703754 0.906729
vt 0.703009 0.921948
vt 0.703009 0.906733
vt 0.703754 0.921943
vt 0.687308 0.929606
vt 0.700614 0.914392
vt 0.701476 0.929606
vt 0.688200 0.914392
vt 0.704499 0.915394
vt 0.705209 0.924054
vt 0.704499 0.924056
vt 0.705209 0.915393
vt 0.702243 0.921943
vt 0.701476 0.906729
vt 0.702243 0.906729
vt 0.701476 0.921943
vt 0.715635 0.944820
vt 0.702363 0.929606
vt 0.714774 0.929606
vt 0.701471 0.944820
vt 0.704499 0.921948
vt 0.703754 0.906729
vt 0.704499 0.906733
vt 0.703754 0.921943
vt 0.701476 0.914392
vt 0.688169 0.899178
vt 0.700584 0.899178
vt 0.687308 0.914392
vt 0.704499 0.915389
vt 0.705212 0.906733
vt 0.705212 0.915393
vt 0.704499 0.906729
vt 0.686839 0.979095
vt 0.684040 0.979107
vt 0.687330 0.976851
vt 0.677077 0.899199
vt 0.677543 0.901419
vt 0.674265 0.899178
vt 0.641692 0.965878
vt 0.640414 0.979080
vt 0.637926 0.976824
vt 0.636427 0.962970
vt 0.651182 0.979080
vt 0.635686 0.939385
vt 0.653592 0.976680
vt 0.641765 0.915999
vt 0.637186 0.923489
vt 0.649989 0.916535
vt 0.655129 0.962721
vt 0.655849 0.939385
vt 0.642928 0.899207
vt 0.653891 0.921055
vt 0.645923 0.902643
vt 0.648567 0.899182
vn -0.5019 0.8391 0.2097
vn -0.9001 0.4230 0.1047
vn -0.2271 0.9211 0.3161
vn -0.5696 0.8201 0.0543
vn -0.5605 0.8280 -0.0130
vn -0.8974 0.4391 -0.0431
vn -0.6403 0.7494 -0.1682
vn -0.8294 0.5262 -0.1878
vn -0.1690 0.9139 -0.3690
vn -0.7448 0.6631 0.0747
vn -0.1516 0.9854 0.0779
vn -0.2746 0.9170 0.2893
vn 0.0005 0.9505 0.3107
vn -0.1769 0.9374 0.3001
vn 0.5509 0.8346 -0.0053
vn 0.0089 0.9980 -0.0622
vn 0.0633 0.9978 -0.0196
vn 0.5109 0.8531 -0.1063
vn 0.0721 0.9832 -0.1677
vn 0.4603 0.8372 -0.2953
vn 0.0012 0.9408 -0.3390
vn 0.4478 0.7214 -0.5283
vn -0.2300 0.7583 -0.6100
vn 0.8798 0.4675 -0.0857
vn 0.5421 0.8399 -0.0258
vn 0.9085 0.4175 -0.0165
vn 0.5725 0.8005 -0.1773
vn 0.5447 0.8364 0.0608
vn 0.8973 0.4318 0.0921
vn 0.5051 0.8361 0.2140
vn 0.8417 0.4874 -0.2324
vn 0.3605 0.8899 0.2796
vn 0.7545 0.6501 0.0899
vn 0.2524 0.9098 -0.3295
vn 0.0000 -0.0003 1.0000
vn -0.0409 -0.0003 0.9992
vn 0.0000 1.0000 -0.0013
vn -0.0000 1.0000 -0.0014
vn 0.0001 1.0000 -0.0012
vn -0.0001 1.0000 -0.0015
vn -0.0395 0.0003 -0.9992
vn -0.0395 0.0004 -0.9992
vn 0.0000 -1.0000 0.0013
vn -0.0000 -1.0000 0.0014
vn 0.0001 -1.0000 0.0012
vn -0.0001 -1.0000 0.0015
vn -1.0000 0.0000 -0.0000
vn 0.0409 -0.0003 0.9992
vn 0.0001 1.0000 -0.0015
vn -0.0001 1.0000 -0.0012
vn 0.0395 0.0003 -0.9992
vn 0.0001 -1.0000 0.0015
vn -0.0001 -1.0000 0.0012
vn 1.0000 -0.0000 -0.0000
vn -0.7622 0.0828 0.6420
vn -0.7658 0.1344 0.6289
vn -0.5664 0.0337 0.8235
vn 0.7622 0.0828 0.6420
vn 0.5664 0.0337 0.8235
vn 0.7658 0.1344 0.6289
vn -0.2263 -0.9738 0.0208
vn -0.1047 -0.9899 0.0961
vn -0.3294 -0.9373 0.1136
vn -0.6510 -0.7573 -0.0518
vn 0.0768 -0.9913 0.1065
vn -0.5762 -0.8173 -0.0005
vn 0.1173 -0.9904 0.0731
vn -0.4088 -0.9085 -0.0866
vn -0.7513 -0.6450 -0.1396
vn 0.4057 -0.9089 -0.0965
vn 0.3824 -0.9237 0.0221
vn 0.5830 -0.8123 -0.0172
vn -0.3400 -0.8571 -0.3870
vn 0.5693 -0.8212 0.0384
vn 0.0119 -0.9708 -0.2397
vn 0.2732 -0.8935 -0.3563
usemtl mat_tankerDrone.001
s 1
f 1/1/1 2/2/2 3/3/3
f 4/4/4 2/2/2 1/1/1
f 5/5/5 2/2/2 4/4/4
f 5/5/5 6/6/6 2/2/2
f 7/7/7 6/6/6 5/5/5
f 6/6/6 7/7/7 8/8/8
f 8/8/8 7/7/7 9/9/9
f 10/10/10 11/11/10 12/12/10
f 13/13/11 14/14/12 15/15/13
f 13/13/11 16/16/14 14/14/12
f 17/17/15 16/16/14 13/13/11
f 17/17/15 18/18/16 16/16/14
f 18/18/16 19/19/17 16/16/14
f 20/20/18 18/18/16 17/17/15
f 20/20/18 21/21/19 18/18/16
f 22/22/20 21/21/19 20/20/18
f 22/22/20 23/23/21 21/21/19
f 24/24/22 23/23/21 22/22/20
f 24/24/22 25/25/23 23/23/21
f 26/26/24 17/17/25 27/27/26
f 26/26/24 28/28/27 17/17/25
f 27/27/26 17/17/25 29/29/28
f 27/27/26 29/29/28 30/30/29
f 30/30/29 29/29/28 31/31/30
f 32/32/31 28/28/27 26/26/24
f 30/30/29 31/31/30 33/33/32
f 33/33/32 34/34/33 30/30/29
f 32/32/31 35/35/34 28/28/27
f 36/36/35 37/37/35 38/38/35
f 36/36/35 38/38/35 39/39/35
f 40/40/36 41/41/36 42/42/36
f 40/40/36 43/43/36 41/41/36
f 44/44/37 45/45/38 46/46/39
f 44/44/37 47/47/40 45/45/38
f 48/48/41 49/49/42 50/50/41
f 48/48/41 51/51/42 49/49/42
f 52/52/43 53/53/44 54/54/45
f 52/52/43 55/55/46 53/53/44
f 56/56/47 57/57/47 58/58/47
f 56/56/47 59/59/47 57/57/47
f 60/60/48 61/61/48 62/62/48
f 60/60/48 63/63/48 61/61/48
f 64/64/37 65/65/38 66/66/49
f 64/64/37 67/67/50 65/65/38
f 68/68/51 69/69/51 70/70/51
f 68/68/51 71/71/51 69/69/51
f 72/72/43 73/73/44 74/74/52
f 72/72/43 75/75/53 73/73/44
f 76/76/54 77/77/54 78/78/54
f 76/76/54 79/79/54 77/77/54
f 80/80/55 81/81/56 82/82/57
f 83/83/58 84/84/59 85/85/60
f 86/86/61 87/87/62 88/88/63
f 88/88/63 89/89/64 86/86/61
f 86/86/61 90/90/65 87/87/62
f 91/91/66 86/86/61 89/89/64
f 86/86/61 92/92/67 90/90/65
f 91/91/66 93/93/68 86/86/61
f 94/94/69 93/93/68 91/91/66
f 93/93/68 92/92/67 86/86/61
f 95/95/70 96/96/71 92/92/67
f 93/93/68 95/95/70 92/92/67
f 95/95/70 97/97/72 96/96/71
f 93/93/68 94/94/69 98/98/73
f 95/95/70 99/99/74 97/97/72
f 93/93/68 98/98/73 100/100/75
f 100/100/75 95/95/70 93/93/68
f 98/98/73 101/101/76 100/100/75
f 100/100/75 99/99/74 95/95/70
f 100/100/75 101/101/76 99/99/74
l 104 2
l 102 103
o ruddervatorLeft_Mesh.001
v -4.328815 5.273099 6.971477
v -4.308306 5.314017 6.971478
v -4.318583 5.293570 6.672455
v -4.328793 5.273088 7.444735
v -4.308284 5.314004 7.444735
v -4.320875 5.288847 8.305180
v -4.316173 5.298233 8.305180
v -1.359158 3.732697 7.147385
v -1.253112 3.774913 8.001083
v -1.267364 3.746479 8.001083
v -1.297005 3.856703 7.147385
v -1.396473 3.751400 6.677835
v -1.334320 3.875405 6.677835
v -1.394629 3.813884 6.381413
v -1.383277 3.836534 6.381413
v -1.321508 3.881106 6.777956
v -2.617675 4.524628 6.862770
v -1.251422 3.778258 8.001242
v -4.315810 5.299006 8.305168
v -4.314785 5.300404 6.672506
v -1.382964 3.837150 6.381454
v -2.809894 4.520681 8.154505
v -4.316173 5.298233 8.305180
v -4.320875 5.288847 8.305180
v -2.796504 4.547402 8.154505
v -1.267364 3.746479 8.001083
v -1.253112 3.774913 8.001083
v -4.318588 5.293572 6.672716
v -2.862223 4.576905 6.528433
v -2.872860 4.555681 6.528433
v -1.383277 3.836534 6.381413
v -1.394629 3.813884 6.381413
v -1.267758 3.745696 8.001065
v -2.667168 4.381806 6.872005
v -1.393372 3.737723 6.777956
v -4.320441 5.289660 8.305057
v -4.322361 5.285347 6.672410
v -1.396053 3.811128 6.381001
vt 0.258542 0.644537
vt 0.260954 0.644335
vt 0.261064 0.660181
vt 0.256457 0.619596
vt 0.258869 0.619395
vt 0.253358 0.574196
vt 0.254150 0.574128
vt 0.441230 0.619230
vt 0.436903 0.574786
vt 0.438551 0.574789
vt 0.434039 0.619215
vt 0.441179 0.643669
vt 0.433988 0.643654
vt 0.438208 0.659092
vt 0.436895 0.659089
vt 0.433999 0.638443
vt 0.346191 0.640047
vt 0.434131 0.574589
vt 0.255138 0.574412
vt 0.262300 0.660230
vt 0.433962 0.659342
vt 0.344054 0.573108
vt 0.255139 0.574412
vt 0.255139 0.573416
vt 0.344054 0.574566
vt 0.434130 0.572936
vt 0.434131 0.574589
vt 0.262303 0.660694
vt 0.348171 0.659546
vt 0.348175 0.660727
vt 0.433962 0.659342
vt 0.433962 0.660654
vt 0.434130 0.572936
vt 0.344850 0.512595
vt 0.434117 0.508930
vt 0.255140 0.573416
vt 0.262565 0.488382
vt 0.434096 0.487923
vn -0.8940 0.4481 0.0001
vn -0.8940 0.4481 0.0000
vn -0.8940 0.4480 0.0000
vn 0.8905 -0.4463 -0.0885
vn 0.4410 0.8957 -0.0560
vn 0.4343 0.8986 -0.0625
vn 0.4469 0.8933 0.0481
vn 0.4326 0.9014 0.0159
vn 0.4232 0.9059 -0.0142
vn 0.4247 0.8903 -0.1645
vn 0.0792 -0.0397 0.9961
vn 0.0791 -0.0397 0.9961
vn -0.0792 0.0397 -0.9961
vn -0.4513 -0.8910 0.0492
vn -0.4606 -0.8857 -0.0582
vn -0.4537 -0.8896 -0.0523
vn -0.4717 -0.8816 0.0191
vn -0.4738 -0.8805 -0.0143
vn -0.4563 -0.8760 -0.1565
usemtl mat_tankerDrone.001
s 1
f 105/102/77 106/103/77 107/104/77
f 108/105/78 106/103/77 105/102/77
f 108/105/78 109/106/78 106/103/77
f 110/107/79 109/106/78 108/105/78
f 110/107/79 111/108/79 109/106/78
f 112/109/80 113/110/80 114/111/80
f 112/109/80 115/112/80 113/110/80
f 116/113/80 115/112/80 112/109/80
f 116/113/80 117/114/80 115/112/80
f 118/115/80 117/114/80 116/113/80
f 118/115/80 119/116/80 117/114/80
f 120/117/81 121/118/82 122/119/83
f 121/118/82 123/120/84 122/119/83
f 121/118/82 124/121/85 123/120/84
f 125/122/86 121/118/82 120/117/81
f 124/121/85 121/118/82 125/122/86
f 126/123/87 127/124/88 128/125/88
f 126/123/87 129/126/87 127/124/88
f 130/127/88 129/126/87 126/123/87
f 130/127/88 131/128/88 129/126/87
f 132/129/89 133/130/89 134/131/89
f 134/131/89 133/130/89 135/132/89
f 134/131/89 135/132/89 136/133/89
f 137/134/90 138/135/91 139/136/92
f 138/135/91 137/134/90 140/137/93
f 140/137/93 141/138/94 138/135/91
f 138/135/91 142/139/95 139/136/92
f 142/139/95 138/135/91 141/138/94
o ruddervatorRight_Mesh.001
v 4.328812 5.273098 6.971479
v 4.318566 5.293562 6.672456
v 4.308303 5.314016 6.971479
v 4.328790 5.273088 7.444736
v 4.308281 5.314004 7.444736
v 4.320873 5.288847 8.305182
v 4.316171 5.298233 8.305182
v 1.359156 3.732697 7.147385
v 1.267361 3.746479 8.001083
v 1.253110 3.774912 8.001083
v 1.297003 3.856702 7.147385
v 1.396471 3.751399 6.677835
v 1.334318 3.875405 6.677835
v 1.394627 3.813884 6.381413
v 1.383275 3.836534 6.381413
v 1.321506 3.881105 6.777955
v 1.251419 3.778257 8.001242
v 2.617674 4.524629 6.862771
v 4.315807 5.299006 8.305170
v 4.314783 5.300403 6.672508
v 1.382963 3.837150 6.381454
v 2.809963 4.520720 8.154512
v 4.320873 5.288847 8.305182
v 4.316171 5.298233 8.305182
v 2.796603 4.547453 8.154516
v 1.267361 3.746479 8.001083
v 1.253110 3.774912 8.001083
v 4.318586 5.293571 6.672717
v 2.872946 4.555725 6.528442
v 2.862266 4.576927 6.528438
v 1.383275 3.836534 6.381413
v 1.394627 3.813884 6.381413
v 1.267756 3.745695 8.001065
v 1.393370 3.737723 6.777956
v 2.667172 4.381808 6.872007
v 4.320439 5.289660 8.305060
v 4.322358 5.285346 6.672411
v 1.396052 3.811128 6.381001
vt 0.258542 0.644537
vt 0.261064 0.660181
vt 0.260954 0.644335
vt 0.256457 0.619596
vt 0.258869 0.619395
vt 0.253358 0.574196
vt 0.254150 0.574128
vt 0.441230 0.619230
vt 0.438551 0.574789
vt 0.436903 0.574786
vt 0.434039 0.619215
vt 0.441179 0.643669
vt 0.433988 0.643654
vt 0.438208 0.659092
vt 0.436895 0.659089
vt 0.433999 0.638443
vt 0.434131 0.574589
vt 0.346191 0.640047
vt 0.255138 0.574412
vt 0.262300 0.660230
vt 0.433962 0.659342
vt 0.344050 0.573108
vt 0.255139 0.573416
vt 0.255139 0.574412
vt 0.344048 0.574566
vt 0.434130 0.572936
vt 0.434131 0.574589
vt 0.262303 0.660694
vt 0.348170 0.660727
vt 0.348169 0.659546
vt 0.433962 0.659342
vt 0.433962 0.660654
vt 0.434130 0.572936
vt 0.434118 0.508930
vt 0.344849 0.512595
vt 0.255140 0.573416
vt 0.262565 0.488382
vt 0.434096 0.487923
vn 0.8940 0.4481 0.0000
vn 0.8941 0.4479 0.0000
vn -0.8905 -0.4463 -0.0885
vn -0.4410 0.8957 -0.0560
vn -0.4469 0.8933 0.0480
vn -0.4340 0.8987 -0.0636
vn -0.4230 0.9059 0.0192
vn -0.4232 0.9059 -0.0142
vn -0.4278 0.8893 -0.1615
vn -0.0791 -0.0397 0.9961
vn -0.0792 -0.0397 0.9961
vn 0.0792 0.0397 -0.9961
vn 0.0791 0.0397 -0.9961
vn 0.4513 -0.8910 0.0493
vn 0.4537 -0.8896 -0.0523
vn 0.4573 -0.8872 -0.0608
vn 0.4630 -0.8862 0.0185
vn 0.4738 -0.8805 -0.0143
vn 0.4583 -0.8746 -0.1583
usemtl mat_tankerDrone.001
s 1
f 143/140/96 144/141/96 145/142/96
f 146/143/96 143/140/96 145/142/96
f 146/143/96 145/142/96 147/144/96
f 148/145/97 146/143/96 147/144/96
f 148/145/97 147/144/96 149/146/97
f 150/147/98 151/148/98 152/149/98
f 150/147/98 152/149/98 153/150/98
f 154/151/98 150/147/98 153/150/98
f 154/151/98 153/150/98 155/152/98
f 156/153/98 154/151/98 155/152/98
f 156/153/98 155/152/98 157/154/98
f 158/155/99 159/156/100 160/157/101
f 160/157/101 159/156/100 161/158/102
f 160/157/101 161/158/102 162/159/103
f 163/160/104 158/155/99 160/157/101
f 162/159/103 163/160/104 160/157/101
f 164/161/105 165/162/106 166/163/106
f 164/161/105 166/163/106 167/164/105
f 168/165/106 164/161/105 167/164/105
f 168/165/106 167/164/105 169/166/106
f 170/167/107 171/168/107 172/169/107
f 171/168/107 173/170/108 172/169/107
f 171/168/107 174/171/108 173/170/108
f 175/172/109 176/173/110 177/174/111
f 177/174/111 178/175/112 175/172/109
f 178/175/112 177/174/111 179/176/113
f 177/174/111 176/173/110 180/177/114
f 180/177/114 179/176/113 177/174/111
o wing_lod_Mesh.001
v -4.987101 3.814928 -0.614658
v -13.955280 3.818604 1.043293
v -4.987104 3.818602 1.410069
v -13.955278 3.814930 -0.260281
v -4.987105 3.693605 1.410069
v -13.955278 3.689933 -0.260281
v -4.987101 3.689930 -0.614658
v -13.955280 3.693607 1.043293
v -4.987104 3.818602 1.410069
v -13.955280 3.756105 1.043294
v -4.987105 3.693605 1.410069
v -4.987090 3.756104 1.410069
v -4.987085 3.752429 -0.614658
v -4.987101 3.752429 -0.614658
v -13.955278 3.752431 -0.260281
v -13.955278 3.752431 -0.260281
v -13.955280 3.756105 1.043293
vt 0.577262 0.893306
vt 0.543794 0.982543
vt 0.536391 0.893306
vt 0.570108 0.982543
vt 0.618132 0.893306
vt 0.584415 0.982543
vt 0.577262 0.893306
vt 0.610729 0.982543
vt 0.618132 0.982617
vt 0.619394 0.893306
vt 0.620655 0.982617
vn 0.0001 1.0000 -0.0019
vn -0.0000 1.0000 -0.0022
vn 0.0001 1.0000 -0.0018
vn -0.0001 1.0000 -0.0028
vn 0.0001 -1.0000 0.0019
vn -0.0000 -1.0000 0.0022
vn 0.0001 -1.0000 0.0018
vn -0.0001 -1.0000 0.0028
vn -0.0409 0.0000 0.9992
usemtl mat_tankerDrone.001
s 1
f 181/178/115 182/179/116 183/180/117
f 181/178/115 184/181/118 182/179/116
f 185/182/119 186/183/120 187/184/121
f 185/182/119 188/185/122 186/183/120
f 189/186/123 190/187/123 191/188/123
l 196 197
l 194 195
l 192 193
o wing_lod.001_Mesh.001
v 4.977333 3.812907 -0.613966
v 13.945509 3.816579 1.043995
v 13.945509 3.812905 -0.259579
v 4.977334 3.816581 1.410761
v 4.977335 3.691584 1.410761
v 13.945509 3.687908 -0.259579
v 13.945509 3.691581 1.043995
v 4.977333 3.687910 -0.613966
v 4.977334 3.816581 1.410761
v 4.977335 3.691584 1.410761
v 13.945509 3.754080 1.043996
v 4.977320 3.754083 1.410761
v 4.977317 3.750409 -0.613966
v 4.977333 3.750409 -0.613966
v 13.945509 3.750407 -0.259579
v 13.945509 3.750407 -0.259579
v 13.945509 3.754080 1.043995
vt 0.577262 0.893306
vt 0.543794 0.982543
vt 0.570108 0.982543
vt 0.536391 0.893306
vt 0.618132 0.893306
vt 0.584415 0.982543
vt 0.610729 0.982543
vt 0.577262 0.893306
vt 0.618132 0.982617
vt 0.620655 0.982617
vt 0.619394 0.893306
vn -0.0001 1.0000 -0.0019
vn 0.0001 1.0000 -0.0027
vn 0.0001 1.0000 -0.0028
vn -0.0001 1.0000 -0.0018
vn -0.0001 -1.0000 0.0019
vn 0.0000 -1.0000 0.0023
vn 0.0001 -1.0000 0.0028
vn -0.0001 -1.0000 0.0018
vn 0.0409 0.0000 0.9992
usemtl mat_tankerDrone.001
s 1
f 198/189/124 199/190/125 200/191/126
f 198/189/124 201/192/127 199/190/125
f 202/193/128 203/194/129 204/195/130
f 202/193/128 205/196/131 203/194/129
f 206/197/132 207/198/132 208/199/132
l 213 214
l 211 212
l 209 210
